<svg xmlns="http://www.w3.org/2000/svg" width="119.803" height="31.663" viewBox="0 0 119.803 31.663">
  <g id="Group_66" data-name="Group 66" transform="translate(-3328.243 -990.673)">
    <path id="Path_6" data-name="Path 6" d="M3513.345,991.7h5.539v30.529H3514v-21.2m-22.2,0v21.2h-4.885V991.7h5.5" transform="translate(-70.837 -0.457)" fill="#020202"/>
    <path id="Path_7" data-name="Path 7" d="M3328.243,991.7h9.377a10.426,10.426,0,0,1,7.5,2.66,9.846,9.846,0,0,1,0,13.825,10.526,10.526,0,0,1-7.5,2.617h-4.492v11.426h-4.885Zm9.377,4.58h-4.492v9.944h4.492a5.614,5.614,0,0,0,3.925-1.309,4.643,4.643,0,0,0,1.439-3.62,4.77,4.77,0,0,0-1.439-3.685A5.558,5.558,0,0,0,3337.62,996.277Z" transform="translate(0 -0.457)" fill="#020202"/>
    <path id="Path_8" data-name="Path 8" d="M3382.127,1010.276h-3.62v11.95h-4.885V991.7h8.81a10.622,10.622,0,0,1,7.5,2.617,8.749,8.749,0,0,1,2.835,6.8,8.954,8.954,0,0,1-1.461,5.1,8.612,8.612,0,0,1-4.078,3.227m-4.8-13.171h-3.925v9.639h3.925a5.8,5.8,0,0,0,3.925-1.243,4.439,4.439,0,0,0,1.439-3.554,4.509,4.509,0,0,0-1.439-3.576A5.739,5.739,0,0,0,3382.433,996.277Z" transform="translate(-20.259 -0.457)" fill="#020202"/>
    <path id="Path_9" data-name="Path 9" d="M3419.949,991.7h4.884v30.529h-4.884Z" transform="translate(-40.941 -0.457)" fill="#020202"/>
    <path id="Path_10" data-name="Path 10" d="M3449.71,990.673a9.289,9.289,0,0,1,6.651,2.29,9.149,9.149,0,0,1,2.595,6.564h-4.972a4.6,4.6,0,0,0-1.243-3.293,4.278,4.278,0,0,0-3.162-1.2,4.192,4.192,0,0,0-3.031,1.068,3.891,3.891,0,0,0-1.113,2.944,3.387,3.387,0,0,0,1.221,2.835,19,19,0,0,0,4.537,2.224q4.709,1.614,6.716,3.751a7.368,7.368,0,0,1,2.006,5.451,8.42,8.42,0,0,1-2.748,6.629,10.249,10.249,0,0,1-7.065,2.4q-4.886,0-7.589-2.6a9.683,9.683,0,0,1-2.791-7.13h4.928a5.662,5.662,0,0,0,1.5,4.012,5.444,5.444,0,0,0,3.991,1.4,5.072,5.072,0,0,0,3.555-1.177,4.107,4.107,0,0,0,1.286-3.184,3.576,3.576,0,0,0-1.33-2.835,14.5,14.5,0,0,0-4.645-2.224,17.019,17.019,0,0,1-6.455-3.533,7.6,7.6,0,0,1-2.05-5.626,8.423,8.423,0,0,1,2.486-6.28A9.075,9.075,0,0,1,3449.71,990.673Z" transform="translate(-49.769)" fill="#020202"/>
    <rect id="Rectangle_49" data-name="Rectangle 49" width="5.553" height="4.326" transform="translate(3361.932 1008.758)" fill="#020202"/>
    <rect id="Rectangle_50" data-name="Rectangle 50" width="5.553" height="4.326" transform="translate(3364.709 1013.084)" fill="#020202"/>
    <rect id="Rectangle_51" data-name="Rectangle 51" width="5.553" height="4.326" transform="translate(3367.486 1017.41)" fill="#020202"/>
    <rect id="Rectangle_52" data-name="Rectangle 52" width="5.553" height="4.326" transform="translate(3423.743 1008.758)" fill="#020202"/>
    <rect id="Rectangle_53" data-name="Rectangle 53" width="5.553" height="4.326" transform="translate(3422.229 1004.432)" fill="#020202"/>
    <rect id="Rectangle_54" data-name="Rectangle 54" width="5.553" height="4.326" transform="translate(3420.966 1000.106)" fill="#020202"/>
    <rect id="Rectangle_55" data-name="Rectangle 55" width="5.553" height="4.326" transform="translate(3419.453 995.78)" fill="#020202"/>
    <rect id="Rectangle_56" data-name="Rectangle 56" width="5.831" height="4.542" transform="translate(3416.545 991.329)" fill="#020202"/>
    <rect id="Rectangle_57" data-name="Rectangle 57" width="5.553" height="4.326" transform="translate(3445.138 1000.106) rotate(-180)" fill="#020202"/>
    <rect id="Rectangle_58" data-name="Rectangle 58" width="5.831" height="4.542" transform="translate(3448.046 995.871) rotate(-180)" fill="#020202"/>
    <rect id="Rectangle_59" data-name="Rectangle 59" width="5.553" height="4.326" transform="translate(3426.52 1013.084)" fill="#020202"/>
    <rect id="Rectangle_60" data-name="Rectangle 60" width="5.553" height="4.326" transform="translate(3429.296 1017.41)" fill="#020202"/>
    <rect id="Rectangle_61" data-name="Rectangle 61" width="5.553" height="4.326" transform="translate(3440.376 1013.084) rotate(-180)" fill="#020202"/>
    <rect id="Rectangle_62" data-name="Rectangle 62" width="5.553" height="4.326" transform="translate(3441.889 1008.758) rotate(-180)" fill="#020202"/>
    <rect id="Rectangle_63" data-name="Rectangle 63" width="5.553" height="4.326" transform="translate(3443.153 1004.432) rotate(-180)" fill="#020202"/>
    <rect id="Rectangle_64" data-name="Rectangle 64" width="5.553" height="4.326" transform="translate(3437.599 1017.41) rotate(-180)" fill="#020202"/>
    <rect id="Rectangle_65" data-name="Rectangle 65" width="5.553" height="4.326" transform="translate(3434.823 1021.736) rotate(-180)" fill="#020202"/>
  </g>
</svg>
